<?xml version="1.0" standalone="no"?>
<!DOCTYPE svg PUBLIC "-//W3C//DTD SVG 20010904//EN"
 "http://www.w3.org/TR/2001/REC-SVG-20010904/DTD/svg10.dtd">
<svg version="1.0" xmlns="http://www.w3.org/2000/svg"
 width="260.000000pt" height="260.000000pt" viewBox="0 0 260.000000 260.000000"
 preserveAspectRatio="xMidYMid meet">
<metadata>
Created by potrace 1.14, written by Peter Selinger 2001-2017
</metadata>
<g transform="translate(0.000000,260.000000) scale(0.100000,-0.100000)"
fill="#000000" stroke="none">
<path d="M1178 2495 c-2 -2 -27 -6 -57 -10 -311 -39 -631 -241 -813 -511 -84
-126 -164 -313 -183 -429 -4 -22 -10 -65 -15 -95 -9 -58 -6 -293 5 -345 43
-210 120 -390 227 -529 69 -90 259 -266 287 -266 6 0 11 -4 11 -8 0 -15 195
-111 286 -140 132 -43 215 -56 359 -57 120 0 183 5 260 20 45 9 137 35 160 45
11 5 45 19 75 31 30 13 89 43 130 68 292 175 488 447 562 776 23 103 33 308
19 400 -19 119 -23 140 -51 226 -56 172 -139 311 -264 446 -136 145 -313 259
-501 322 -87 29 -108 33 -225 51 -50 7 -266 11 -272 5z m375 -1503 c17 -38 3
-50 -49 -45 -27 2 -50 6 -52 8 -2 2 4 17 14 33 14 24 23 30 47 28 20 -2 34
-10 40 -24z"/>
</g>
</svg>
